<svg width="14" height="14" viewBox="0 0 14 14" fill="none" xmlns="http://www.w3.org/2000/svg">
<path d="M12.5119 1.48816L12.8654 1.1346V1.1346L12.5119 1.48816ZM3.33339 13.0237V13.5237C3.46599 13.5237 3.59317 13.471 3.68694 13.3772L3.33339 13.0237ZM1.00005 13.0237H0.500053C0.500053 13.2998 0.723911 13.5237 1.00005 13.5237V13.0237ZM1.00005 10.6429L0.6465 10.2894C0.552732 10.3832 0.500053 10.5103 0.500053 10.6429H1.00005ZM10.5084 1.84171C10.964 1.3861 11.7027 1.3861 12.1583 1.84171L12.8654 1.1346C12.0193 0.288466 10.6474 0.288466 9.80128 1.1346L10.5084 1.84171ZM12.1583 1.84171C12.6139 2.29732 12.6139 3.03601 12.1583 3.49162L12.8654 4.19873C13.7115 3.3526 13.7115 1.98074 12.8654 1.1346L12.1583 1.84171ZM12.1583 3.49162L2.97983 12.6701L3.68694 13.3772L12.8654 4.19873L12.1583 3.49162ZM3.33339 12.5237H1.00005V13.5237H3.33339V12.5237ZM9.80128 1.1346L0.6465 10.2894L1.35361 10.9965L10.5084 1.84171L9.80128 1.1346ZM0.500053 10.6429V13.0237H1.50005V10.6429H0.500053ZM8.80128 2.84171L11.1583 5.19873L11.8654 4.49162L9.50839 2.1346L8.80128 2.84171Z" fill="white"/>
</svg>
